<?xml version="1.0" encoding="UTF-8" standalone="no"?>
<!-- Created with Inkscape (http://www.inkscape.org/) -->

<svg
        width="159.27695mm"
        height="54.293839mm"
        viewBox="0 0 159.27695 54.293839"
        version="1.1"
        id="svg1"
        xml:space="preserve"
        xmlns="http://www.w3.org/2000/svg"
><defs
     id="defs1" /><g
     id="layer2"
     style="display:inline"
     transform="translate(-21.85212,-93.32743)"><path
       style="fill:#ffffff;stroke-width:0.264583"
       d="m 40.952729,137.28762 10.334165,-24.7316 10.686102,0.19196 -1.599716,10.62212 7.422682,-10.68611 10.686103,-0.12797 -9.886244,24.7636 -7.582654,0.032 3.743336,-9.72627 h -0.223962 l -6.590829,9.82226 -6.814791,0.032 1.919661,-10.30217 -0.191966,-0.064 -4.447212,10.27018 z"
       id="path1" /><path
       style="fill:#ffffff;stroke-width:0.264583"
       d="m 70.982811,137.32688 10.334165,-24.7316 10.686102,0.19196 -1.599716,10.62212 7.422682,-10.68611 10.686156,-0.12797 -9.886297,24.7636 -7.582654,0.032 3.743336,-9.72627 h -0.223962 l -6.590829,9.82226 -6.814791,0.032 1.919661,-10.30217 -0.191966,-0.064 -4.447212,10.27018 z"
       id="path1-2" /><path
       style="fill:#ffffff;stroke-width:0.264583"
       d="m 101.83792,137.57557 9.5663,-25.17953 8.54248,0.15998 -2.8155,7.90259 5.85496,0.064 3.00747,-8.19055 8.51049,0.15998 -9.15038,25.21152 -8.51049,-0.064 3.10345,-9.21436 -5.69499,-0.064 -3.77533,9.27835 z"
       id="path2" /><path
       style="fill:#ffffff;stroke-width:0.264583"
       d="m 137.60757,112.52402 8.54248,0.032 -5.98294,17.4369 10.65411,0.25595 -2.36758,7.26271 -19.80448,0.032 z"
       id="path3" /><path
       style="fill:#ffffff;stroke-width:0.264583"
       d="m 145.51371,140.53656 -6.51554,-0.0905 6.53154,0.0905 c 4.45997,-1.13373 8.43908,-4.05365 10.85852,-7.9681 0.69013,-1.11658 1.25574,-2.30513 1.79168,-3.50338 1.35696,-3.03386 2.53237,-6.14514 3.80733,-9.21436 1.47608,-3.55339 3.08541,-7.04996 4.73516,-10.52613 0.13914,-0.29317 0.2789,-0.58683 0.44792,-0.86385 0.46942,-0.76935 1.15723,-1.39283 1.93233,-1.85269 0.77511,-0.45985 1.63643,-0.76136 2.51488,-0.96281 2.26791,-0.52009 4.74542,-0.35598 6.78279,0.76787 0.59512,0.32828 1.15092,0.73737 1.59972,1.24777 0.64588,0.73454 1.05618,1.67949 1.1198,2.65553 0.0596,0.91436 -0.17761,1.82252 -0.47991,2.68752 -0.1392,0.39831 -0.29257,0.79151 -0.44792,1.1838 -0.50173,1.26696 -1.02453,2.52558 -1.56773,3.77532 -2.99286,6.8857 -6.60256,13.49508 -10.62211,19.83648 -0.2645,0.41728 -0.53078,0.83344 -0.79986,1.24778 -0.46276,0.7126 -0.93475,1.42116 -1.47174,2.07963 -1.15522,1.41656 -2.60176,2.58476 -4.19125,3.48738 -2.03415,1.15513 -4.2867,1.87526 -6.55884,2.43157 -0.69436,0.17001 -1.39721,0.32615 -2.11162,0.35194 -0.83282,0.0301 -1.66226,-0.11764 -2.49556,-0.12798 -1.06948,-0.0133 -2.15498,0.19844 -3.19943,-0.032 -0.69645,-0.15366 -1.34808,-0.5053 -1.85883,-1.00309 -0.51075,-0.49779 -0.87902,-1.14017 -1.05052,-1.83245 -0.17151,-0.69227 -0.14571,-1.43228 0.0736,-2.11093 0.2193,-0.67865 0.63141,-1.29382 1.17559,-1.75483 z"
       id="path4" /><path
       style="fill:#ffffff;stroke-width:0.264583"
       d="m 27.963034,140.71102 125.481726,-0.25596 0.0141,6.91022 -125.495818,0.25599 -0.0141,-6.91022 z"
       id="path5" /><path
       style="fill:#ff0000;stroke-width:0.264583"
       d="m 50.423047,111.59618 -10.014222,24.02774 -7.454675,1.75969 2.30359,-5.37505 -13.40562,-11.00604 3.487381,-1.98365 -2.655529,-8.70246 8.51049,0.86385 2.015641,-4.06328 7.03875,8.70245 -2.271596,-15.7412 4.639177,2.33558 4.95912,-9.08638 4.767151,9.0224 4.79915,-2.49556 -1.695701,11.64593 z"
       id="path6" /></g></svg>
