<svg xmlns="http://www.w3.org/2000/svg" width="500" height="500"><path fill="none" d="M0 0h500v500H0z"/><path fill="#FFF" d="M449 269a9 9 0 1 0 0 18 9 9 0 0 0 0-18zm0 16a7 7 0 0 1-7-7 7 7 0 1 1 7 7zm3-9a3 3 0 0 0-3-3h-4v11h2v-5h1l2 5h2l-2-5a3 3 0 0 0 2-3zm-3 1h-2v-2h2l1 1a1 1 0 0 1-1 1z"/><path fill="#FFF" d="M428 279c14-20 21-40 21-60 0-51-53-86-131-86h-7c-8-13-23-20-35-23l-24-37-50 82c-92 34-155 98-155 155 0 21 9 40 26 55l-38 62s67-10 168-16l6-16c30-4 61-11 90-23l2 7 5 11c8 16 25 36 56 36 79 0 103-67 103-67 1-53-37-80-37-80z"/><path fill="#236192" d="M422 280c14-19 23-40 23-61 0-46-47-81-127-81h-9c-8-15-25-22-36-24l-21-33-47 78c-85 31-154 92-154 151 0 21 10 40 28 54l-35 58s72-11 156-15l6-17c33-3 66-11 97-24 0 1-1 6 2 11l5 11c9 17 25 33 52 33 76 0 99-63 99-63 0-35-17-61-39-78z"/><path fill="#010101" d="m437 338-15 18v23h-4l-8-12c-55 39-97 15-97 15l13 19c22 29 94 19 125-34h-4c-1-12-10-29-10-29z"/><g fill="#A2AAAD"><path d="m356 256-68-107-7-1 68 107 7 1zm-205 13 101-166 7 11 8 1-15-23-102 168 1 9z"/><path d="M264 336c-39 0-65 20-100 20-49 0-64-35-64-59 0-73 87-118 87-118l2-3-3 1c-14 7-92 49-92 120 0 12 3 22 7 31a62 62 0 0 0 4 5l-50 81s61-9 141-13l18-49c16-4 32-9 52-9 43 0 71 23 71 23s-16-30-73-30z"/></g><path fill="#6F263D" d="M281 148c-18 0-42 12-67 30l11-19 8-7 6-22 10-3 3-14 7 1-7-11-101 166c2 12 9 29 32 29 47 0 114-43 165-43h1l-68-107zM108 338l-41 69s52-7 124-12l16-41c-14 4-28 8-47 8-21 0-39-9-52-24z"/><g fill="#A2AAAD"><path d="m383 396 3-6c-46 16-65 0-65 0 15 17 49 10 62 6z"/><path d="M328 399c13 16 53 15 85-4l3-6c-20 13-64 26-88 10zm-75-176-21 56s-29 11-48 14c38 3 105-41 149-41-20-6-67 13-67 13l-13-42z"/></g><path fill="#236192" d="m253 241-13 34 20-8-7-26z"/><g fill="#FFF"><path d="M186 177c-65 26-115 71-115 117 0 19 9 35 22 46l8-12c-4-9-7-19-7-31 0-71 78-113 92-120zm227 97c8-13 13-26 13-39 0-51-59-73-114-77l-3 13 54 85c17 3 35 9 50 18zM288 149c8 2 14 6 18 14 4-17-2-42-39-48a103 103 0 0 0-8-1 123 123 0 0 0-7-1l-3 14-10 3-6 22-8 7-11 19c25-18 49-30 67-30l7 1z"/><path d="M348 260c-56 0-118 43-166 43-14 0-18-5-18-5l-3 3s-59-28 22-116c0 0-69 37-75 110l4-4s-2 50 54 50c45 0 61-17 102-17 89 0 103 51 103 51s-58 17-62-15c0 0-8 37 66 18 0 0 5-7 4-17 0 0 7 7 8 12 0 0 6-6-3-23 0 0 8 7 13 17l3-3s0-7-15-27l-10 6s-24-45-112-39c0 0 73-26 116 27l9-6s26 25 33 54h1v-49l8 9s3-7-1-20c0 0 17 16 22 48l2-18c0-15-25-89-105-89zm64 50-3 19-12-12-5 3c-8-10-39-36-76-36-51 0-96 37-140 37-49 0-51-29-51-40 0-21 13-45 13-45-5 13-23 78 41 78 50 0 77-35 136-35 56 0 79 32 79 32l4-3 9 9v-9l5-9c-12-23-38-32-38-32 35 7 45 32 45 32l-7 11z"/><path d="m218 358-5 13c29-1 59-7 86-16-30-14-76 2-81 3z"/></g><path fill="#236192" d="M297 144c-16-15-53-3-53-3l-1 4c38-14 54-1 54-1z"/><path fill="#A2AAAD" d="M227 164c47-26 66-19 73-12-22-24-70 6-70 6l-3 6z"/></svg>