<svg xmlns="http://www.w3.org/2000/svg" width="500" height="500"><path fill="none" d="M0 0h500v500H0z"/><path fill="#FFF" d="M415 315a10 10 0 1 0 0 20 10 10 0 0 0 0-20zm0 18a8 8 0 0 1-8-8 8 8 0 1 1 8 8zm4-10a3 3 0 0 0-4-4h-4v11h2v-4h1l2 4h3l-2-4a3 3 0 0 0 2-3zm-4 1h-2v-3h2l2 2a1 1 0 0 1-2 1z"/><path fill="#010101" d="M463 307c0-15 15-74-97-162l19-4-10-32-18 13v-20h-37c-24-17-35-39-73-39-15 0-32 3-36 3l-25-1c-41 0-45 30-40 41-54 37-80 64-80 73l2 16c0 15-33 48-33 66 0 17 21 18 21 18 1 5-7 21 0 29-10 11 2 17 2 25 0 6-4 8-4 19 0 13 6 28 37 28l31-2c3 26 14 36 16 42 1 6 4 17 11 17 9 0 58-16 96-39 19 7 43 5 51 5 10 0 14 5 19 5 4 0 29-28 27-90 16 27 26 44 27 54 21-7 38-56 30-87 0 0 26 42 66 36l-2-14z"/><path fill="#FF6720" d="M440 228c-27-42-72-77-83-85l-2 6a15 15 0 0 1-2 3 15 15 0 0 1-3 3 601 601 0 0 0 45 117c33 52 65 45 65 45-5-9 11-39-20-89zm-89-120h-24l15 17h9z"/><path fill="#FFD100" d="M396 279a162 162 0 0 1-3-5l-13-22a331 331 0 0 0-22-67l-8-30a15 15 0 0 1-4 2 15 15 0 0 1-7 0 15 15 0 0 1-4-2c-4 108 6 126 8 157 27 43 28 55 28 55s32-22 25-88z"/><path fill="#001871" d="M384 270a238 238 0 0 0-9-38 529 529 0 0 0-29-75 15 15 0 0 1-7 0c-1 11-4 61 3 105 10 64 34 87 34 87s17-24 8-79zm0 25-20-11-4-26 21 12 3 25zm-9-51 6 23-21-12a25409 25409 0 0 1-4-22l19 11zm-24-70c7 16 16 41 23 66l-18-11-9-53c0-4 3-4 4-2zm-10 3c0-3 3-3 3-1l9 53-11 10c-2-23-2-46-1-62zm3 85-2-19 11-11 4 23-12 12a269 269 0 0 1-1-5zm2 8 11-11 5 26-10 11-6-26zm7 29 9-11 7 27-6 10c-3-7-7-15-10-26zm22 45-10-16 6-11 10 9-6 18zm7-21-10-9a23220 23220 0 0 1-7-26l19 10-2 25z"/><path fill="#C8102E" d="M327 141c-54 41-83 101-92 122 0 0-2 3 0 5l17 34c1 1 2 2 4 1l28-26 3-5c12-74 30-110 41-126l-1-4v-1z"/><path fill="#00843D" d="m373 119-15 10 3 11 17-4zm-41 34a15 15 0 0 1-2-3c-18 28-40 98-40 158 0 61 19 94 25 94s24-33 24-75c0-12-10-58-10-145 0-19 2-24 3-29zm-93 112 15 34 29-27s13-79 37-122c-64 62-81 115-81 115zm48-28-1 4-6 30-2 2-23 21-13-29 2-4 1-4a243 243 0 0 1 17-32c11-17 27-38 49-62-10 21-19 51-24 74zm55-106a11 11 0 1 0 0 22 11 11 0 0 0 0-22z"/><path fill="#FFD100" d="M325 165s-31 65-31 142c0 50 16 89 20 89s20-24 20-75c0-20-11-97-9-156zm-13 44c1-2 3-3 3 1l-4 47-11 9c3-22 7-41 12-57zm-13 61 12-9-2 34-12 8 2-33zm-2 37 12-9 1 35-11 7a247 247 0 0 1-2-33zm30 55c-1 1-6 2-13-10-4 13-9 9-11 7l-3-16 12-8 17 12a164 164 0 0 1-2 15zm4-41-1 23-16-11-1-33 18 12v9zm-1-12-17-12 1-34 13 10 3 36zm-3-40-13-9 5-50c0-5 4-3 4 0 0 20 2 40 4 59z"/><path fill="#FFD100" d="M298 151c4 0 3-5 0-5-55 0-86 7-91 8-3-26-18-35-18-52 0-7 4-8 8-8 12 0 22 15 40 15 16 0 20-12 29-12 14 0 8 37 33 37 8 0 13-3 13-3 3-2 0-6-3-4l-10 2c-21 0-12-37-33-37-11 0-14 11-30 11-17 0-23-15-40-15-10 0-13 7-13 13 0 19 19 34 19 60 0 27-9 50-9 87 0 44 41 56 41 97 0 23 9 37 19 37 5 0 10-4 12-12l4 1c3 0 13-3 13-15 0-34-59-52-59-106 0-26 4-67 11-67 3 0 7 14 15 14 10 0 6-28 11-28 3 0 9 13 15 13 5 0 7-10 9-19 1-3-5-4-6-1l-4 14c-3-3-8-13-15-13-10 0-8 29-10 29-5 0-7-15-16-15-12 0-16 41-16 73 0 57 60 76 60 105 0 8-6 11-8 11l-3-1 1-7c0-17-10-21-14-21s-6 4-6 9c0 8 7 16 13 21-1 5-3 9-7 9-9 0-14-20-14-31 0-43-41-55-41-98 0-36 10-59 10-83l-1-5c6-1 41-9 91-8zm-45 196 1-4c5 0 7 9 7 13v5c-5-4-8-11-8-14z"/><g fill="#CC8A00"><path d="M214 346c10-15 4-40-14-33-10-17-22-41-22-69 0-31 6-39 6-66 0-46-21-55-35-64-33 22-76 52-76 68l2 14c0 16-32 49-32 64 0 6 5 11 12 11l34-3c7-1 8-5 8-7 0-4-7-11-13-11-5 0-5 3-5 4 0 3 4 4 4 4 6-1 6 4 1 4s-10-3-10-9 5-7 8-7c14 0 22 13 20 21 17 8 17 21 14 21-6 0-2-16-25-16l-22 2c-3 1-4 1-5 4l-3 17c0 9 5 9 9 9 9 0 25-2 25-6 0-2-4-2-5-2-3 0-4-1-4-2 0-3 4-4 9-4 8 0 9 5 8 8-1 5 8 4 8 15 0 2 0 5-3 5-2 0-3-3-3-5s-3-5-5-5c-3 0-14 5-36 3-9 11 2 12 2 23 0 13-4 12-4 19 0 16 16 20 33 20 35 0 73-8 87-33-5 22-22 30-52 36 3 25 8 30 12 37 4 6 4 15 11 15 8 0 53-16 83-34l-22-48zm-84-209 16-12a3 3 0 0 1 3 0c12 9 18 17 18 17a3 3 0 1 1-4 3s-5-7-16-15l-4 3c6 5 20 17 29 29a3 3 0 0 1 0 3h-4c-10-12-25-25-29-29l-4 3 16 16v4a3 3 0 0 1-4 0c0-1-7-10-17-18-2-1-2-3 0-4zm-35 87c-2 0-1-7-1-9-15-1-17-6 1-6 0-3-2-12 0-17l-8-3c-7-3 6-8 4-12 0 0-4-3-4-6 0-4 6-8 16-8 19 0 24 17 40 17 3 0 11-2 11 1 0 4-7 7-13 7-13 0-23-10-30-10l-2 1-2 5c-2 3 0 4 0 4l24 14c5 3 3 5 0 6l-28 6c-1 6-5 10-8 10zm76 74c-33-10-12-50 3-46a32 32 0 0 0-3 46z"/><path d="m104 176-10 3c-2 0-2 2 0 2l7 4 2-1 3-6-2-2z"/></g><path fill="#C8102E" d="M208 315c-7-2-14 5-17 15-3 11-1 21 6 23 7 1 14-5 17-16 3-10 0-20-6-22zm1 21c-2 6-6 11-10 10s-5-7-3-14 6-11 10-10 5 7 3 14zM90 320c-3-5-5-1-8 1-4 2-8 1-6 6 2 6-2 17-1 20 2 3 5 4 7 3 3-1 4-3 4-6 1-6-2-15-1-16 2 0 7 8 13 10 2 1 4 2 7 1 2-2 3-5 2-8-2-3-14-7-17-11zm46-76-9 3c-4 1-10 1-11-2v-1c1-3 5-6 5-6s-5-1-7-4h-1c0-4 4-6 9-8l9-1c3-1 6-3 6-6-2-5-8-4-12-3-19 5-23 12-22 18 2 5 8 6 8 6s-5 5-3 10c1 5 8 10 27 5 4-1 10-3 9-8-1-3-4-4-8-3zm206-109a7 7 0 1 0 0 14 7 7 0 0 0 0-14z"/><path fill="#FFF" d="M106 196c-2 5-1 11 0 12 15-1 21-3 21-3l-21-9zM85 328c-1 1 2 10 1 16 1 3 5 14 13 10 7-3 1-13-1-16-6-2-11-10-13-10zm60-105c-6 2-11 7-22 10l-9 1c2 3 7 4 7 4s-4 3-5 6l9-3c11-3 18-1 24-2 3-1 8-2 6-10s-7-7-10-6zm148-34a1 1 0 0 0-2 1 541 541 0 0 0-13 28l-16 7a263 263 0 0 0-2 4l16-7-10 27-21 8a155 155 0 0 0-1 4l21-9-10 30a1 1 0 0 0 1 2l2-1 9-29 11 19 2-2-12-20a495 495 0 0 1 9-25l9 15 1-4-8-14a542 542 0 0 1 15-32 1 1 0 0 0-1-2zm137 42c-21-33-65-73-75-82a15 15 0 0 1-2 3c6 18 31 85 53 121s44 34 44 34 7-32-20-76zm13 34-18-4-22-34 26 8c7 11 11 21 14 30zm-16-34-26-7-20-32 18 4c11 12 21 24 28 35zm-71-77c8 7 24 22 40 39l-17-4-10-18a1 1 0 0 0-2 0 1 1 0 0 0 0 2l11 18-3 12-19-49zm21 54 3-14 19 31-6 18-16-35zm32 64-15-26 7-18 21 35-6 19-7-10zm39 32c-5 0-17-3-30-19l6-19 10 16a1 1 0 0 0 2 0l1-1-10-17 17 4c5 18 4 31 4 36z"/></svg>