<svg xmlns="http://www.w3.org/2000/svg" width="2500" height="2500" viewBox="0 0 192.8 192.8"><g fill-rule="evenodd" clip-rule="evenodd"><path fill="none" d="M0 0h193v193H0V0z"/><path fill="#b4b8be" d="M70 120s8 19 42 20c34 0 55-13 55-13l16 36s-33 24-77 24c-22 0-55-7-75-25-21-19-28-49-28-49s9-22 20-36c12-14 26-19 26-19l-6-20 21 14s16-5 17-7c2-2 3-8 4-19l1-19 11-1c3 0 16-1 21 11s6 21 7 23 6 5 11 7c6 2 25 9 31 14 10 6 11 12 12 14s15 6 10 21l-18 20-14-10c-10-5-21-8-21-8l-33 17-8 4h-5l-20 1z"/><path fill="#572b32" d="M135 90c20 5 35 15 35 15l3-3-12-7-16-6 14-4 4 1 7 4 9 6 3-4s2-3 0-6l-9-7s-2-6-6-9c-4-4-9-6-9-6l-24-10-12-6c-4-2-5-11-5-11l-5-14s-1-9-9-9H93l-1 19-5 15-3 4-13 6v-2l-3-1 11-4s7-2 8-9c2-7 3-31 3-31l9-1c3 0 12 0 15 7l5 19 3 8c4 4 18 9 24 11s19 8 23 12l7 10 8 7c0 1 4 4 1 10-1 3-14 16-14 16s-11-8-17-10l-19-7-33 17s-6 4-13 5H63s7 28 49 29c29 0 53-11 53-11l12 28s-26 22-73 22c-24-1-53-8-71-25-19-18-26-45-26-45s8-20 19-33 24-19 24-19v2h5s-15 6-25 18c-11 13-19 32-19 32s8 28 24 43c20 17 53 23 69 23 42 0 70-19 70-19l-11-23s-21 10-51 10c-50-1-54-35-54-35s13-12 19-15l16-6-26 20 15 1h8l6-2 39-20z"/><path fill="#2b3157" d="M173 79s-2-6-6-9c-4-4-9-6-9-6l-24-10-12-6c-4-2-5-11-5-11l-5-14s-1-9-9-9H93l-1 19c0 5-3 12-5 15l-3 4-13 6-4 2-3 3-4 15-7-2 3 5-11 2 5 2-18 14h5l-6 12 12-4-3-4 19-7-1 10v5s7-12 19-20c18-12 29-11 29-11l-39 31 15 1h8l6-2 47-24s9-4 15-4c8 0 23 11 23 11s3-5-3-9c-9-6-14-6-20-6-4-1-15-3-18-12 3-3 3-2 6-2 9 0 19 9 18 10l-4-3c-2-1-9-5-10-2 1 4 5 6 7 6l16 4z"/><path fill="#fff" d="m155 87 4-2 4 2-3 2-5-2zm9 1 4 2-2 2-5-2 3-2zm5 3 5 2-2 2-5-3 2-1zm6 3 4 2-2 2-5-2 3-2zm-15-4 5 3-2 1-6-2 3-2zm6 3 5 3-2 2-6-3 3-2zm6 3 4 3-2 2-4-2 2-3zm-13-6-3 2-7-3 5-2 5 3z"/><path fill="#3573a4" d="m94 49 7-5 1-23 3 23c1 2 9 5 9 5l-10-2-10 2z"/><path fill="#b4b8be" d="m71 77-5-11 17-10-12 21z"/><path fill="#3573a4" d="m69 66 10-6-9 13-1-7z"/><path fill="#b4b8be" d="m65 79-2 13-22 3 24-16z"/><path fill="#3573a4" d="m63 82-1 9-15 2 16-11zm0-19-11-2-5-18 21 14-5 6z"/><path fill="#3573a4" d="m44 104 11-4v10c0 3 6 37 54 40 31 1 53-10 53-10l7 19s-26 17-62 17c-19 0-49-5-68-22-17-14-25-41-25-41s17-44 47-49l-3 11-9-5 4 10-14 3 8 3-18 14h4l-4 7-3 10 15 2-3 13 7-4 4 15h9v9s18 12 47 12 41-7 41-7-18 5-41 5c-24 0-42-11-42-11l-2-11-7 1-6-15-6 2 3-11-15-2 9-6 6-2-1-3z"/><path fill="#fff" d="m93 91-16 6c-6 3-19 15-19 15v-1s7-12 19-20c18-12 29-11 29-11L93 91zm42-1c20 5 35 15 35 15l3-3-12-7-16-6 14-4 4 1 7 4 9 6 3-4s2-3 0-6l-9-7-16-4c-2 0-6-2-7-6 1-3 8 1 10 2l4 3c1-1-9-10-18-10-3 0-3-1-6 2 3 9 14 11 18 12 6 0 11 0 20 6 6 4 3 9 3 9s-15-11-23-11c-6 0-15 4-15 4l-8 4z"/><path fill="#b4b8be" d="m66 81 10-6 10 9-20-3z"/><path fill="#3573a4" d="m70 81 5-3 7 4-12-1z"/></g></svg>