<svg xmlns="http://www.w3.org/2000/svg" width="500" height="500"><path fill="none" d="M0 0h500v500H0z"/><path fill="#FFF" d="M318 440v8h-2v-8h-2v-2h6v2h-2zm11 8v-6l-2 4h-2l-1-4v6h-2v-10h2l2 6 3-6h2v10h-2zM275 59l-25-24-25 24H91v293c50 56 92 82 159 113 67-31 109-57 159-113V59H275z"/><path fill="#B9975B" d="m273 64-23-21-23 21H97v286c46 52 88 79 153 109 65-30 106-57 153-109V64H273zM146 187v151a333 333 0 0 1-5-5V187c0-62 35-104 86-123l2 4 2 6-6-3c-54 22-79 64-79 116zm100 126-24-79 8-8-2 9 22 71-4 7zm29 77-9 12 72-209 7-4-70 201z"/><path fill="#010101" d="M392 75v271c-42 47-87 76-142 101-55-25-100-54-142-101V75h95c-37 22-62 60-62 112v146c26 26 60 53 93 69l-72-209 68 33-8 8 24 79h8l24-79-8-8 68-33-72 209c32-16 67-43 93-69V187c0-52-25-90-62-112h95z"/><path fill="#333F48" d="M269 74c2-8 4-10 4-10a62854 62854 0 0 0-23-21v208l15-48 81-39c-7-42-34-74-77-90zm85 134-61 174 11-14s27-21 44-40v-89l6-31zm-208 0 51 145-28-66-17-48-6-31zm83-15-64-24 70 34V100l-6 93z"/></svg>