<svg xmlns="http://www.w3.org/2000/svg" width="500" height="500"><g fill="none" fill-rule="evenodd"><path d="M0 0h500v500H0z"/><g fill-rule="nonzero"><path fill="#00205B" d="M343 437v8h-2v-8h-2v-2h7v2h-3zm11 8v-5l-1 3h-2l-2-3v5h-2v-10h2l3 6 2-6h2v10h-2z"/><path fill="#00205B" stroke="#FFF" stroke-width="6" d="M442 204a1 1 0 0 0 0-1c-6-3-11-4-17-5a1 1 0 0 1 0-1c4-9 7-19 9-31h-1c-10 2-21 7-31 12a1 1 0 0 1-1-1c-1-6-3-13-7-19a1 1 0 0 0-1-1c-10 8-19 16-27 25a1 1 0 0 1-1 0l-8-9a1 1 0 0 0-1 0 266 266 0 0 1-52 50c5-16 12-31 19-45a1 1 0 0 0 0-1l-11-2a1 1 0 0 1-1-1c9-13 16-29 21-44a1 1 0 0 0-1-1c-8 1-17 2-24 5a1 1 0 0 1-1-1c2-12 1-27-1-40a1 1 0 0 0-1 0l-17 8a1 1 0 0 1-1 0c1-12-1-25-3-36a1 1 0 0 0-1 0l-13 6a1 1 0 0 1-1 0c-4-12-10-24-17-36a1 1 0 0 0-2 0c-7 12-13 24-17 36a1 1 0 0 1-1 0l-13-6a1 1 0 0 0-1 0c-2 11-4 24-3 36a1 1 0 0 1-1 0l-17-8a1 1 0 0 0-1 0c-2 13-3 28-1 40a1 1 0 0 1-1 1c-7-3-16-4-24-5a1 1 0 0 0-1 1c5 15 12 31 21 44a1 1 0 0 1-1 1l-11 2a1 1 0 0 0 0 1 278 278 0 0 1 18 45c-18-13-37-32-51-50a1 1 0 0 0-1 0l-8 9a1 1 0 0 1-1 0c-8-9-17-17-27-25a1 1 0 0 0-1 1c-4 6-6 13-7 19a1 1 0 0 1-1 1c-10-5-21-10-31-12h-1c2 12 5 22 9 31a1 1 0 0 1 0 1c-6 1-11 2-17 5a1 1 0 0 0 0 1c7 11 14 21 23 28a1 1 0 0 1 0 2 54 54 0 0 0-10 7 1 1 0 0 0 0 1 241 241 0 0 0 38 30 1 1 0 0 1 0 1l-13 13a1 1 0 0 0 0 1c10 9 21 16 34 21a1 1 0 0 1 0 1l-12 12a1 1 0 0 0 0 1c10 4 21 8 33 10v1c-15 4-29 10-42 18a1 1 0 0 0 0 1c10 7 19 13 31 18a1 1 0 0 1 0 1c-16 13-28 27-40 44l1 1 44-8-7 18 1 1a351 351 0 0 0 38-5l-10 22 1 1a280 280 0 0 0 70-21c1 18 8 31 18 41h1l13-12v-2c-2-3-15-16-12-27a385 385 0 0 0 75 20l-10-22v-1a351 351 0 0 0 39 5l-7-18a324 324 0 0 0 45 7c-12-17-24-31-40-44a1 1 0 0 1 0-1c12-5 21-11 31-18a1 1 0 0 0 0-1 218 218 0 0 0-42-19c12-2 23-6 33-10a1 1 0 0 0 0-1l-12-12a1 1 0 0 1 0-1c13-5 24-12 34-21v-1l-13-13a1 1 0 0 1 0-1 241 241 0 0 0 38-30v-1a54 54 0 0 0-10-7 1 1 0 0 1 0-2c9-7 16-17 23-28z"/><path fill="#FFF" d="M247 204h1v15h4v-10c17-13 31-28 37-42a130 130 0 0 1-37 38 668 668 0 0 1 0-57 1 1 0 0 1 0-1c8-4 14-9 21-16h-1c-7 6-13 11-20 14l-1-68h-1a1119 1119 0 0 1 0 44c-6-6-12-13-17-21a136 136 0 0 0 17 25 1078 1078 0 0 1-2 29 735 735 0 0 0 0 10c-8-5-15-13-21-22v1c5 9 12 17 20 23l1 1a763 763 0 0 0 0 33h-1c-15-9-27-21-37-35 9 15 22 30 37 39zm-108 40 2-1h1l-1-1a349 349 0 0 0-2-2 1 1 0 0 1-1-1c0-10-3-18-9-25a39 39 0 0 1 7 22l-19-17a1 1 0 0 1-1-1c1-7 0-14-3-20 2 6 2 12 1 18l-25-24 29 30a208 208 0 0 1 5 6 45 45 0 0 1-3 0c-8 0-16-2-24-6h-1a53 53 0 0 0 31 8l13 14zm245-25 25-26h-1l-27 27v-20c-2 6-3 13-2 21l-1 1-20 20 2 1h1a453 453 0 0 1 8-8c11-1 20-3 28-8-8 3-15 5-22 5a49 49 0 0 1-3 0 478 478 0 0 1 12-13zM259 394c-7 0-14 2-18 7-2-1-9-5-18-5-4 0-9 2-14 5h-1c-13-2-26 0-39 5a87 87 0 0 1 36-3l-17 9c11-1 25-13 35-13a33 33 0 0 1 17 6l-1 5c4-9 11-12 21-12 7 0 15 3 24 5 5 5 15 10 20 10l2 1-2-1a52 52 0 0 1-15-9l12 1c16 0 23-3 27-4-5 1-9 2-25 2-14 0-32-9-44-9zM150 264a435 435 0 0 1 8-4l-3-6a432 432 0 0 0-23 12l3 6a441 441 0 0 1 8-4l16 30a434 434 0 0 1 6-3l-15-30v-1zm31 23 3-1 9-3c2 0 4-2 5-4v-5l-8-24c-1-3-4-6-7-6a8 8 0 0 0-3 1 422 422 0 0 0-9 3c-4 1-6 6-5 10l8 24c1 3 4 5 7 5zm-5-34 4-1c2-1 3 0 4 2l7 20a3 3 0 0 1-1 2 3 3 0 0 1-1 2 379 379 0 0 0-5 1 3 3 0 0 1-1 0 3 3 0 0 1-3-2l-6-20c-1-1 0-3 2-4zm80 22c4 0 8-4 8-8v-25c0-4-4-8-8-8a416 416 0 0 0-10 0c-4 0-8 4-8 8v25c0 4 4 8 8 8h10zm-10-31c0-2 1-3 3-3a432 432 0 0 1 4 0c2 0 3 1 3 3v21c0 1-1 3-3 3a422 422 0 0 0-4 0c-2 0-3-2-3-3v-21zm-2 127h11l1 6h7l-9-35h-10l-9 35h7l2-6zm5-22 4 15h-8l4-15zm19-35v-11c0-4-3-7-7-7h-15v35h6v-10h9c4 0 7-3 7-7zm-7-2-2 2h-7v-12h7l2 2v8zm-86 30v35h20v-6h-13v-29h-7zm26-46h-6l-7 17-8-17h-5v35h6v-16l7 14 6-14v16h7v-35zm14-18-2-12h1a376 376 0 0 1 3-1 5008 5008 0 0 1 8 11 407 407 0 0 1 7-1 4518 4518 0 0 0-8-10v-1c4-2 5-5 5-8l-2-13a8 8 0 0 0-9-7 404 404 0 0 0-16 3l6 40a417 417 0 0 1 7-1zm-5-34a399 399 0 0 1 7-1c1 0 3 1 3 3l1 8a3 3 0 0 1 0 3 3 3 0 0 1-2 1l-6 1h-1l-2-15zm19 87h8l-9-35h-10l-8 35h7l1-7h10l1 7zm-9-13 3-15 3 15h-6zm74 31v-7h-22v35h7v-14h11v-7h-11v-7h15zm-17-114-6 40 7 1 4-23v2a4007 4007 0 0 1 8 23 419 419 0 0 1 6 1l6-39a418 418 0 0 0-7-2l-3 23-1-2a3929 3929 0 0 0-8-23 429 429 0 0 0-6-1zm33 142h10c4 0 7-3 7-7v-5c0-2-1-5-3-6l-13-6-1-2c0-2 1-2 2-2h6c1 0 2 0 2 2v1h7v-3c0-4-3-7-7-7h-10c-4 0-7 3-7 7v4c0 2 1 5 4 6a4259 4259 0 0 0 13 7v2c0 2-1 3-2 3h-6c-1 0-2-1-2-3v-1h-7v3c0 4 3 7 7 7zm17-53h-13v-7h9v-7h-9v-8h13v-6h-20v35h20v-7zm-29 0h-13v-28h-7v35h20v-7zm18-38 11-32 9 3 2-7a432 432 0 0 0-25-8l-2 7a432 432 0 0 1 8 2h1l-11 32a433 433 0 0 1 7 3zm-90 63v-7h-22v35h22v-6h-15v-8h11v-7h-11v-7h15zm137-87a416 416 0 0 0-9-4 8 8 0 0 0-4-1l-7 4-11 23-1 5 4 5a415 415 0 0 1 9 4 8 8 0 0 0 4 1c3 0 5-1 6-4l12-22c2-4 0-9-3-11zm-4 9-10 19a3 3 0 0 1-3 1h-1a421 421 0 0 0-4-2 3 3 0 0 1-2-4l10-19c1-1 3-2 4-1a423 423 0 0 1 4 2c2 1 2 3 2 4z"/></g></g></svg>