<svg xmlns="http://www.w3.org/2000/svg" width="500" height="500"><path fill="none" d="M0 0h500v500H0z"/><path fill="#FFF" d="M257 347a7 7 0 1 0 0 15 7 7 0 0 0 0-15zm0 13a6 6 0 0 1-6-6 6 6 0 1 1 6 6zm3-7a3 3 0 0 0-3-3h-3v9h1v-4h1l2 4h2l-2-4a3 3 0 0 0 2-2zm-3 1h-2v-2h2l1 1a1 1 0 0 1-1 1z"/><path fill="#C8102E" d="M429 188c18-16 36-40 36-69 0-4-5-5-7-2-19 25-36 35-47 38 18-13 35-35 39-60 1-4-4-5-6-3-22 22-52 45-131 45l-56-1c-65 0-89 40-94 51l-16-1a112 112 0 1 0 102 155h4c14 0 17-4 17-7l-3-6c21 0 27-1 36-4 2 0 2-2 2-3 0-3-6-8-10-12 29-1 50-6 50-13 0-1 0-3-8-9 17-4 45-15 45-22 0-3-2-5-5-7 26-10 47-26 47-32 0-5-7-6-11-6 13-8 31-22 31-28s-10-4-15-4z"/><path fill="#FFF" d="M422 190c20-16 40-42 40-71h-1c-32 42-60 42-60 42l-1-2c20-12 42-37 47-64l-1-1c-23 23-54 46-133 46l-56-1c-69 0-90 46-92 52a109 109 0 0 0-18-1 108 108 0 1 0 100 147l6 1c11 0 14-3 14-4 0-2-7-9-4-9 25 0 30-1 39-4-4-7-20-16-12-16 39 0 52-7 52-9s-13-10-13-10c18-3 50-18 50-21s-9-6-8-8c28-10 49-28 49-31s-16-3-16-3v-2c14-7 36-25 36-29 0-3-20 2-18-2z"/><g fill="#C8102E" transform="translate(11 91) scale(.49751304)"><path d="M325 375c-7-9-16-17-27-21l-1 1 3 25a44 44 0 0 1 3 3h19a321 321 0 0 0 3-8zm-78-19 20 15a46 46 0 0 1 4 0l18-18v-3a67 67 0 0 0-17-2 67 67 0 0 0-25 5v3zm43 6-10 9a45 45 0 0 1 12 4l-2-13zm8 91a46 46 0 0 1-12 6l12 8v-14zm-90 62 32-31c-13-6-23-16-31-27l-27 36a119 119 0 0 0 26 22zm101-125a45 45 0 0 1 5 8 264 264 0 0 0 4-8h-9zm-60 97a70 70 0 0 1-2 0l-33 32a118 118 0 0 0 42 14l-7-46zm60-43h-1a45 45 0 0 1-3 3v25l1 2a68 68 0 0 0 17-14c-7-6-12-12-14-16zm-62-66a45 45 0 0 1 11-5l-11-8v13zm-42 72a99 99 0 0 1-1-2h-46c4 14 11 28 20 39l27-37zm92 26-20-15a46 46 0 0 1-4 0l-18 18v2a67 67 0 0 0 17 2 67 67 0 0 0 25-5v-2zm-43-6 10-10a45 45 0 0 1-12-4l2 14zm50 14v46c15-4 28-11 40-20l-37-27-3 1zm-69-43a45 45 0 0 1-6-11l-8 11h14zm6 7h-25l-2 2c8 12 19 22 32 28l2-2-4-25a48 48 0 0 1-3-3zm-2-64 1-25-2-1c-13 7-22 18-28 32l2 1 25-3a46 46 0 0 1 2-4zm-21 14 10 9a45 45 0 0 1 4-11l-14 2zm-11 1a68 68 0 0 0-2 17 67 67 0 0 0 5 25h2l15-20a39 39 0 0 1 0-4l-18-18h-2zm50 90 6 45a119 119 0 0 0 34-2v-45a75 75 0 0 1-25 4l-15-2zm81-163v-9l-2-1-32 32a75 75 0 0 1 25 18c5-13 9-27 9-40zm-100 23 2-1v-46c-14 4-28 11-39 19l37 28zm49-7-6-44a126 126 0 0 0-34 2v45a75 75 0 0 1 25-4l15 1zm78 147c-13-7-26-16-36-24a76 76 0 0 1-16 14l36 27 16-17zm-35-176a118 118 0 0 0-42-15l7 46 2 1 33-32zM154 416l2 25h45a75 75 0 0 1-4-25l1-16-44 7a117 117 0 0 0 0 9zm1-16 45-7 1-2-32-33a117 117 0 0 0-14 42zm18-49 31 32a75 75 0 0 1 27-30l-36-27a118 118 0 0 0-22 25z"/><circle cx="272.1" cy="415.8" r="24.4"/><path d="M272 269a147 147 0 1 0 120 231l-17-6a129 129 0 1 1-38-189l1-20c-20-10-42-16-66-16z"/><path d="M435 506c-10 2-22 1-35-3a155 155 0 0 1-283-95c-4 7-3 19-12 19-6 0-3-9-8-9-3 0-3 4-7 4h-1c-1 0-1 2-3 2s-3-3-5-3c-1 0-2 4-4 4-3 0-5-4-6-6a201 201 0 0 0 387 73c-22-7-44-19-44-19 2 14 21 33 21 33zM91 339c5 4 1 10 4 15a187 187 0 0 1 252-110 159 159 0 0 1 6-12A200 200 0 0 0 85 341c2 1 4-4 6-2zm427-207h110c142 0 204-51 228-95 2-3 0-4-3-1-31 27-77 76-264 76h-79c-125 0-172 56-184 93a219 219 0 0 1 18 6c23-40 65-79 174-79z"/><path d="M515 161c-111 0-174 76-167 148 5 55-25 99-25 99s42-20 42-97c0-73 73-126 134-126h162c181 0 225-83 231-100 1-2 0-1-1 0-38 51-90 80-234 80-92 0-121-4-142-4z"/><path d="M556 224c-29 0-32 8-32 8-1 1-1 4-3 5-7 3-14-3-20 5-4 4-12-2-18 2l1 4 9 2c1 2 1 4 3 5l7 4c1 2 2 5 4 5 44 3 91 3 133-13 5-8-42-27-84-27zm-176 99v11c32 3 63-2 92-15 8-4-31-24-64-24-11 0-18 4-18 4-2 1-3 6-5 9-2 2 1 6 0 7-3 3-5 5-5 8zm43-76c-2 0-3 3-4 4-3 4-12 3-12 8 0 8-9 10-10 16-2 4-4 8-4 13 33 0 67-2 96-19 8-4-40-26-66-22zm105-29c-2-9-14-11-22-16-3-2-7-1-10 1-8 3-18-2-26 3-3 2-4 5-7 6l-11 2-4 2c1 7-6 8-11 10s-3 8-3 13c32 1 66-4 94-21zM364 378c8 4 48-2 69-15-22-18-56-24-56-24-5 13-10 26-13 39zM358 386c-4 2-9 8-5 10 6 4 17 14 65 14s66-15 75-24c0-6-42-18-47-14-2 0-2 2-3 3l-9 2c-3 2-2 6-3 6-7 2-17-3-24 1-2 0-1 6-4 6-5 0-11-3-15-1-1 0-4 0-6 2-2-2-4-2-7-3s-5 1-8 1c-3-1-7-5-9-3zm192-35c9-4 20-5 26-13-39-21-85-19-91-16l-5 5c-2 2-5 1-7 3v5l-5 2-6 1-4 3c-5 3-13 0-17 0-2 0-1 3 0 4 2 2 9 3 8 6l-2 3c3 8 37 18 81 4 7-3 15-3 22-7zm50-57c4-2 9-2 11-5 5-7-41-17-60-17s-53 5-59 7c-2 1-2 6-5 6l-17 2v4c3 2 4 4 6 9h4c4 4 7 8 11 9 22 5 43 7 65 2 3-1 4-3 7-3 7-1 16-2 22-7 4-5 11-3 15-7zm53-94c2 0 1-5 0-5-5-1-11-3-16 2-2 2-6-2-8 0l-6 5c-5 3-10-3-16-2-2 0-1 4-3 4-5 1-9-4-12-2-4 3-8 6-13 4-5-3-11-7-15-4-6 5-13-3-18-1-4 2-16 5-8 10 25 15 77 12 115-11zM407 483c-2-2-5-1-7-2l-5-6h-6l-5-6-6-7-6-5h-5c-3 0-4-5-6-7l-5-2-2-4-6-4-5-9c-2-3-5-3-6-5-3-3-4-8-6-11-3-3-9 2-11 6-4 6-4 14 1 20 25 27 56 50 93 56l-7-14zm80-9-11-5c-2 0-4 3-6 1l-12-9c-3-2-9-8-11-7-1 0-2 6-5 4-6-4-9-9-14-13-3-2-5 4-8 3-7-3-10-11-16-17s-12-13-21-15c-1-1 0 1-2 2-6 6-14-3-20-6s-11-7-18-8c-2 0-1 2-1 3 38 45 91 79 149 77 1 0 4 0 2-2-2-3-4-8-6-8zm54-33-6 2c-5-1-8-5-14-8-2-1-3 4-5 4-9 0-22-10-30-15-2-1-10 1-12 1-5 1-11-8-16-10-3-1-7-3-10 0-4 2-9 1-13 1-2 0-3 3-5 4-6 2-13-2-19 1l-1 1c1 4 5 5 8 6 42 27 106 36 142 27 1 0 0-3-3-5-2-2-6-2-8-3l-8-6zm84-39c-5 2-8-2-12 0l-2 2c-7 0-11-8-18-7-2 0-2 3-4 3-4 1-8-4-12-2l-7 1c-4-1-6-5-10-5-3-1-6 2-9 1-8-2-15-10-24-8-4 1-8-2-11 0l-8 6c-2 2-7 1-10 3l-4 5c-4 1-8 0-12 2-1 0-1 2 1 3 34 11 89 24 155 7 2-1 3-2 1-4-4-4-9-8-14-7zm79-57c-6 2-13-1-19 1-2 0-1 3-2 3-7 1-13-1-19 1-5 2-10 0-16 0l-2 5c0 2-3 3-4 3l-18-4c-17-2-32-7-48-3-5 2-11 3-15 7l-5 5-29 7c-2 1-8 5-6 6a286 286 0 0 0 199-25c-2-2-12-8-16-6zm66-66c-4 1-9-2-12 0-5 4-11 3-15 2-3 0-6-1-8 1-2 1 0 3 2 4-13 4-26 0-37 5l-4 5c-11 2-20-2-31 0-3 0-1 6-4 6l-28-1c-11 0-22 4-32 7-3 1-4 6-7 6-10 2-19 0-27 4v4c10 5 22 9 29 19 70-1 147-10 206-59 1-1-6-2-10-3l-11-2c-4-2-8 1-11 2zm73-67c-1 0-11-2-17-1-2 1-2 3-4 3-7 1-13 5-20 5l-8 2c-2 2-6-2-8 1-2 1 1 5-2 6-7 4-15-2-21 2-2 1 2 6-1 7-9 2-26-12-32 3-1 2-4 1-6 1l-5-1c-6 5-10 7-18 5-2-1-2 5-6 4s-9-4-13-2c-2 1-1 6-4 6-11 1-23 0-33 4-3 1-3 6-7 7-8 1-16 0-24 3l1 4c5 1 11 0 14 2 5 3 8 10 12 11 91 1 157-31 202-69 2-1 1-2 0-3zm-22-53c-2 1-1 5-4 6l-14 4c-2 0-2 3-3 4l-8 1c-12 9-25 5-38 7 0 10-15 4-21 8-7 5-6 3-16 3-3 0-2 5-4 5-8 0-19-2-25 0-1 0-1 5-3 5l-14 3c-3 1 1 8-3 9-7 2-15 1-23 5-3 2-7 0-11 1-3 0-4 4-2 5 3 2 7 1 9 2 5 3 10 7 16 7 96 6 220-62 240-145 0-3-1-3-2-1-21 50-74 71-74 71z"/></g></svg>