<svg xmlns="http://www.w3.org/2000/svg" width="2500" height="2500" viewBox="0 0 192.8 192.8"><g fill-rule="evenodd" clip-rule="evenodd"><path fill="none" d="M0 0h193v193H0V0z"/><path fill="#ced0d6" d="M153 26v4h-40c-7 0-13 3-17 5-3-2-9-5-16-5H40l-2-9-10 4c-6 2-12 8-12 17v81c0 12 6 25 16 34s23 15 35 15c13 0 23-5 29-9 6 4 16 9 30 9 12 0 25-6 35-15s16-22 16-34V42c0-9-6-15-12-17l-11-4-1 5z"/><path fill="#fff" d="M159 33c-1 3-2 4-4 4h-42c-7 0-11 3-14 5a27 27 0 0 0-3 2 27 27 0 0 0-2-2c-3-2-8-5-14-5H37c-2 0-3-1-3-4l-1-3-3 1c-2 1-7 4-7 11 0 9 10 19 22 22l18 4c11 3 17 11 17 16v5h32v-5c0-5 6-13 17-16l18-4c13-3 23-13 23-22 0-7-5-10-8-11l-3-1v3z"/><path fill="#fff" d="M23 68v55c0 22 21 42 44 42 15 0 25-7 29-11 4 4 15 11 30 11 22 0 44-20 44-42V63l-5 3c-3 3-6 4-11 6-12 5-14 10-14 14v47h-28V98H80v35H53V86c0-4-2-9-15-14l-11-6-4-3v5z"/><path fill="#353f91" d="M162 34c-1 2-3 6-7 6h-42c-11 0-17 8-17 9 0-1-6-9-16-9H37c-4 0-5-4-6-6-2 1-5 3-5 8 0 8 9 16 20 19l18 5c12 3 19 11 19 18v2h27v-2c0-7 6-15 19-18l18-5c11-3 20-11 20-19 0-5-3-7-5-8z"/><path fill="#508e4f" d="M155 74c-12 5-12 10-12 12v50h-33v-35H83v35H50V86c0-3 0-7-13-12-5-2-8-3-11-6v55c0 20 20 39 41 39 18 0 29-11 29-11s12 11 30 11c21 0 41-19 41-39V68l-12 6z"/></g></svg>